<svg width="62" height="62" viewBox="0 0 62 62" fill="none" xmlns="http://www.w3.org/2000/svg">
<g clip-path="url(#clip0_3_107)">
<path d="M31.3885 28.4167H30.24H28.4167H18.0833V33.5833H28.4167H30.6707H31H33.5833H43.9167V28.4167H33.5833H31.3885ZM31 5.16667C16.74 5.16667 5.16666 16.74 5.16666 31C5.16666 45.26 16.74 56.8334 31 56.8334C45.26 56.8334 56.8333 45.26 56.8333 31C56.8333 16.74 45.26 5.16667 31 5.16667ZM31 51.6667C19.6075 51.6667 10.3333 42.3925 10.3333 31C10.3333 19.6075 19.6075 10.3333 31 10.3333C42.3925 10.3333 51.6667 19.6075 51.6667 31C51.6667 42.3925 42.3925 51.6667 31 51.6667Z" fill="white"/>
</g>
<defs>
<clipPath id="clip0_3_107">
<rect width="62" height="62" fill="white"/>
</clipPath>
</defs>
</svg>
