<svg width="43" height="43" viewBox="0 0 43 43" fill="none" xmlns="http://www.w3.org/2000/svg">
<g clip-path="url(#clip0_41_59)" filter="url(#filter0_i_41_59)">
<path d="M23.2916 12.5417H19.7083V19.7083H12.5416V23.2917H19.7083V30.4583H23.2916V23.2917H30.4583V19.7083H23.2916V12.5417ZM21.5 3.58333C11.61 3.58333 3.58331 11.61 3.58331 21.5C3.58331 31.39 11.61 39.4167 21.5 39.4167C31.39 39.4167 39.4166 31.39 39.4166 21.5C39.4166 11.61 31.39 3.58333 21.5 3.58333ZM21.5 35.8333C13.5987 35.8333 7.16665 29.4012 7.16665 21.5C7.16665 13.5987 13.5987 7.16666 21.5 7.16666C29.4012 7.16666 35.8333 13.5987 35.8333 21.5C35.8333 29.4012 29.4012 35.8333 21.5 35.8333Z" fill="white"/>
</g>
<defs>
<filter id="filter0_i_41_59" x="0" y="0" width="43" height="47" filterUnits="userSpaceOnUse" color-interpolation-filters="sRGB">
<feFlood flood-opacity="0" result="BackgroundImageFix"/>
<feBlend mode="normal" in="SourceGraphic" in2="BackgroundImageFix" result="shape"/>
<feColorMatrix in="SourceAlpha" type="matrix" values="0 0 0 0 0 0 0 0 0 0 0 0 0 0 0 0 0 0 127 0" result="hardAlpha"/>
<feOffset dy="4"/>
<feGaussianBlur stdDeviation="2"/>
<feComposite in2="hardAlpha" operator="arithmetic" k2="-1" k3="1"/>
<feColorMatrix type="matrix" values="0 0 0 0 0 0 0 0 0 0 0 0 0 0 0 0 0 0 0.25 0"/>
<feBlend mode="normal" in2="shape" result="effect1_innerShadow_41_59"/>
</filter>
<clipPath id="clip0_41_59">
<rect width="43" height="43" fill="white"/>
</clipPath>
</defs>
</svg>