<svg width="62" height="62" viewBox="0 0 62 62" fill="none" xmlns="http://www.w3.org/2000/svg">
<g clip-path="url(#clip0_3_104)">
<path d="M33.5834 18.0833H28.4167V28.4167H18.0834V33.5833H28.4167V43.9167H33.5834V33.5833H43.9167V28.4167H33.5834V18.0833ZM31 5.16667C16.74 5.16667 5.16669 16.74 5.16669 31C5.16669 45.26 16.74 56.8334 31 56.8334C45.26 56.8334 56.8334 45.26 56.8334 31C56.8334 16.74 45.26 5.16667 31 5.16667ZM31 51.6667C19.6075 51.6667 10.3334 42.3925 10.3334 31C10.3334 19.6075 19.6075 10.3333 31 10.3333C42.3925 10.3333 51.6667 19.6075 51.6667 31C51.6667 42.3925 42.3925 51.6667 31 51.6667Z" fill="white"/>
</g>
<defs>
<clipPath id="clip0_3_104">
<rect width="62" height="62" fill="white"/>
</clipPath>
</defs>
</svg>
